<?xml version="1.0" encoding="UTF-8"?>
<svg id="svg12" width="91" height="31" version="1.1" viewBox="0 0 91 31" xmlns="http://www.w3.org/2000/svg">
 <path id="path24" d="m80.168 5.291c-1.8903 0-3.4395 1.5492-3.4395 3.4395v18.521c0 1.8903 1.5492 3.4395 3.4395 3.4395h6.6152c1.8902 0 3.4395-1.5492 3.4395-3.4395v-18.521c0-1.8902-1.5493-3.4395-3.4395-3.4395zm0 1.5879h6.6152c1.0322 1e-7 1.8516 0.81928 1.8516 1.8516v18.521c0 1.0323-0.81932 1.8516-1.8516 1.8516h-6.6152c-1.0324 0-1.8516-0.81923-1.8516-1.8516v-18.521c0-1.0323 0.81922-1.8516 1.8516-1.8516z" stop-color="#000000" stroke-linecap="round" stroke-linejoin="round" stroke-miterlimit="2"/>
 <path id="path23" d="m80.17 7.6738c-0.5845 0-1.0586 0.47409-1.0586 1.0586 0 0.58451 0.47409 1.0566 1.0586 1.0566s1.0566-0.47213 1.0566-1.0566c0-0.5845-0.47214-1.0586-1.0566-1.0586z"/>
 <path id="path22" d="m81.492 28.047a0.26458 0.26458 0 0 0-0.26562 0.26367 0.26458 0.26458 0 0 0 0.26562 0.26367h3.9688a0.26458 0.26458 0 0 0 0.26367-0.26367 0.26458 0.26458 0 0 0-0.26367-0.26367z" stop-color="#000000" stroke-linecap="round" stroke-linejoin="round" stroke-miterlimit="2"/>
 <path id="path21" d="m61.648 1.3223c-1.8903 0-3.4395 1.5492-3.4395 3.4395v22.49c0 1.8903 1.5492 3.4395 3.4395 3.4395h7.9375c1.8902 0 3.4395-1.5492 3.4395-3.4395v-22.49c0-1.8902-1.5493-3.4395-3.4395-3.4395zm0 1.5879h7.9375c1.0322 0 1.8516 0.81928 1.8516 1.8516v22.49c0 1.0323-0.81932 1.8516-1.8516 1.8516h-7.9375c-1.0324 0-1.8516-0.81923-1.8516-1.8516v-22.49c0-1.0323 0.81922-1.8516 1.8516-1.8516z" stop-color="#000000" stroke-linecap="round" stroke-linejoin="round" stroke-miterlimit="2"/>
 <path id="path20" d="m63.633 28.047a0.26458 0.26458 0 0 0-0.26562 0.26367 0.26458 0.26458 0 0 0 0.26562 0.26367h3.9688a0.26458 0.26458 0 0 0 0.26367-0.26367 0.26458 0.26458 0 0 0-0.26367-0.26367z" stop-color="#000000" stroke-linecap="round" stroke-linejoin="round" stroke-miterlimit="2"/>
 <path id="path19" d="m64.162 3.4395a0.79375 0.79375 0 0 0-0.79492 0.79492 0.79375 0.79375 0 0 0 0.79492 0.79297h2.9102a0.79375 0.79375 0 0 0 0.79297-0.79297 0.79375 0.79375 0 0 0-0.79297-0.79492z" stop-color="#000000" stroke-linecap="round" stroke-linejoin="round" stroke-miterlimit="2"/>
 <path id="path18" d="m19.314 0c-1.8903 0-3.4395 1.5492-3.4395 3.4395v23.812c0 1.8902 1.5492 3.4395 3.4395 3.4395h31.75c1.8902 0 3.4395-1.5493 3.4395-3.4395v-23.812c0-1.8902-1.5493-3.4395-3.4395-3.4395zm0 1.5879h31.75c1.0322 0 1.8516 0.8193 1.8516 1.8516v23.812c0 1.0322-0.81936 1.8516-1.8516 1.8516h-31.75c-1.0323 0-1.8516-0.81936-1.8516-1.8516v-9.2598c-0.7306 0-1.3223-0.59362-1.3223-1.3242v-5.291c0-0.7306 0.59167-1.3223 1.3223-1.3223v-6.6152c0-1.0323 0.81922-1.8516 1.8516-1.8516z" stop-color="#000000" stroke-linecap="round" stroke-linejoin="round" stroke-miterlimit="2"/>
 <path id="path17" d="m17.463 10.055c-0.7306 0-1.3223 0.59166-1.3223 1.3223v5.291c0 0.7306 0.59167 1.3242 1.3223 1.3242 0.7307 0 1.3223-0.59362 1.3223-1.3242v-5.291c0-0.7306-0.59156-1.3223-1.3223-1.3223z"/>
 <path id="path16" d="m33.205 28.047a0.26458 0.26458 0 0 0-0.26367 0.26367 0.26458 0.26458 0 0 0 0.26367 0.26367h3.9688a0.26458 0.26458 0 0 0 0.26367-0.26367 0.26458 0.26458 0 0 0-0.26367-0.26367z" stop-color="#000000" stroke-linecap="round" stroke-linejoin="round" stroke-miterlimit="2"/>
 <path id="path15" d="m3.4395 9.2598c-1.8902 0-3.4395 1.5493-3.4395 3.4395v14.553c0 1.8903 1.5493 3.4395 3.4395 3.4395h5.293c1.8902 0 3.4395-1.5492 3.4395-3.4395v-14.553c0-1.8902-1.5492-3.4395-3.4395-3.4395zm2.6465 0.5293c0.5845 0 1.0586 0.47409 1.0586 1.0586h1.5879c1.0323 0 1.8516 0.81936 1.8516 1.8516v14.553c0 1.0323-0.81926 1.8516-1.8516 1.8516h-5.293c-1.0323 0-1.8516-0.81922-1.8516-1.8516v-14.553c0-1.0322 0.8193-1.8516 1.8516-1.8516h1.5879c0-0.5845 0.47409-1.0586 1.0586-1.0586z" stop-color="#000000" stroke-linecap="round" stroke-linejoin="round" stroke-miterlimit="2"/>
 <path id="path14" d="m6.0859 9.7891c-0.5845 0-1.0586 0.47409-1.0586 1.0586s0.47409 1.0586 1.0586 1.0586 1.0586-0.47409 1.0586-1.0586c0-0.5845-0.47409-1.0586-1.0586-1.0586z"/>
 <path id="path13" d="m4.1016 28.047a0.26458 0.26458 0 0 0-0.26562 0.26367 0.26458 0.26458 0 0 0 0.26562 0.26367h3.9688a0.26458 0.26458 0 0 0 0.26367-0.26367 0.26458 0.26458 0 0 0-0.26367-0.26367z" stop-color="#000000" stroke-linecap="round" stroke-linejoin="round" stroke-miterlimit="2"/>
</svg>
