<?xml version="1.0" encoding="UTF-8"?>
<svg id="svg1" version="1.1" viewBox="0 0 102.29 30.745" xmlns="http://www.w3.org/2000/svg">
 <g id="layer1" transform="translate(-50.535 -124.88)" stroke-linecap="round" stroke-linejoin="round" stroke-miterlimit="2">
  <path id="path13" d="m75.207 136.27c-0.24511-9e-3 -0.48771-4e-5 -0.72656 0.0176h-18.209c-1.9099-0.0372-3.5946 1.4141-3.8398 3.3086-0.62078 4.1593-1.2425 8.3192-1.8633 12.479a0.79383 0.79383 0 0 0-2e-3 0.0156c-0.13042 1.0125 0.20554 1.9266 0.80469 2.5234 0.59914 0.5968 1.402 0.89753 2.2168 0.97461 0.81475 0.0771 1.6609-0.0668 2.4004-0.46289 0.72402-0.38777 1.3494-1.0492 1.6094-1.9356 0.33568-0.76614 0.66792-1.5276 1.0859-2.1074 0.42483-0.5893 0.89456-0.97857 1.6074-1.1465 1.565-0.26769 3.2645-0.10387 5.0586-0.15429h5.1934a0.79383 0.79383 0 0 0 0.03711-2e-3c0.83257-0.0396 1.4807 0.25991 2.0586 0.78907s1.0482 1.3015 1.3535 2.1016c0.28888 0.79106 0.76384 1.5517 1.4453 2.1191 0.65785 0.5478 1.5471 0.87577 2.5195 0.79492 2.1206 0.19891 3.7997-1.8958 3.2383-3.9141-0.59989-4.0191-1.2009-8.0376-1.8008-12.057-0.14017-1.2965-0.9388-2.2547-1.8984-2.7617-0.71397-0.37725-1.5103-0.55253-2.2891-0.58203zm-0.07813 1.5898c0.58728 0.0241 1.1751 0.15579 1.627 0.39453 0.60243 0.31831 0.97571 0.7446 1.0605 1.5293a0.79383 0.79383 0 0 0 0.0039 0.0312c0.6037 4.0447 1.2088 8.09 1.8125 12.135a0.79383 0.79383 0 0 0 0.02539 0.11328c0.29057 0.95333-0.58338 2.0786-1.5859 1.957a0.79383 0.79383 0 0 0-0.18945 0c-0.56664 0.0675-1.0131-0.10425-1.4297-0.45117-0.41662-0.34693-0.76737-0.88529-0.97266-1.4512a0.79383 0.79383 0 0 0-0.0039-0.0117c-0.37416-0.98038-0.94545-1.9579-1.7656-2.709-0.82017-0.75106-1.9262-1.2639-3.2051-1.2031h-5.1562a0.79383 0.79383 0 0 0-0.02344 0c-1.6708 0.0488-3.4707-0.14684-5.3398 0.17968a0.79383 0.79383 0 0 0-0.04102 8e-3c-1.1451 0.26399-1.9751 0.97758-2.5488 1.7734-0.57373 0.79584-0.93805 1.6816-1.2754 2.4512a0.79383 0.79383 0 0 0-0.03906 0.10937c-0.12671 0.46476-0.41801 0.78371-0.84375 1.0117s-0.98373 0.33009-1.5 0.28125c-0.51627-0.0488-0.9717-0.24621-1.2461-0.51953-0.2744-0.27332-0.42834-0.59929-0.35156-1.1953 0.62078-4.1593 1.2425-8.3192 1.8633-12.479a0.79383 0.79383 0 0 0 2e-3 -0.0156c0.13453-1.0394 1.1865-1.9442 2.2344-1.9238a0.79383 0.79383 0 0 0 0.01563 0h18.225a0.79383 0.79383 0 0 0 0.06641-4e-3c0.19057-0.016 0.38627-0.0197 0.58203-0.0117z" fill="currentColor" stop-color="#000000"/>
  <path id="path11" d="m55.99 142.11a0.79375 0.79375 0 0 0-0.79297 0.79492 0.79375 0.79375 0 0 0 0.79297 0.79297h1.8516v-1.5879zm3.4395 0v1.5879h1.8516a0.79375 0.79375 0 0 0 0.79492-0.79297 0.79375 0.79375 0 0 0-0.79492-0.79492z" fill="currentColor" stop-color="#000000"/>
  <path id="path9" d="m58.637 139.46a0.79375 0.79375 0 0 0-0.79492 0.79297v5.291a0.79375 0.79375 0 0 0 0.79492 0.79492 0.79375 0.79375 0 0 0 0.79297-0.79492v-5.291a0.79375 0.79375 0 0 0-0.79297-0.79297z" fill="currentColor" stop-color="#000000"/>
  <path id="path30" d="m111.82 143.43a0.79375 0.79375 0 0 0-0.79493 0.79297 0.79375 0.79375 0 0 0 0.79493 0.79297h1.8516v-1.5859zm3.4394 0v1.5859h1.8516a0.79375 0.79375 0 0 0 0.79297-0.79297 0.79375 0.79375 0 0 0-0.79297-0.79297z" fill="currentColor" stop-color="#000000"/>
  <path id="path28" d="m114.46 140.79a0.79375 0.79375 0 0 0-0.79297 0.79297v5.293a0.79375 0.79375 0 0 0 0.79297 0.79297 0.79375 0.79375 0 0 0 0.79492-0.79297v-5.293a0.79375 0.79375 0 0 0-0.79492-0.79297z" fill="currentColor" stop-color="#000000"/>
  <path id="path8" d="m69.881 141.71a1.1906 1.1906 0 0 0-1.1914 1.1895 1.1906 1.1906 0 0 0 1.1914 1.1914 1.1906 1.1906 0 0 0 1.1914-1.1914 1.1906 1.1906 0 0 0-1.1914-1.1895z" fill="currentColor" stroke-width="1.5875"/>
  <path id="path7" d="m74.643 141.71a1.1906 1.1906 0 0 0-1.1895 1.1895 1.1906 1.1906 0 0 0 1.1895 1.1914 1.1906 1.1906 0 0 0 1.1914-1.1914 1.1906 1.1906 0 0 0-1.1914-1.1895z" fill="currentColor" stroke-width="1.5875"/>
  <path id="path6" d="m72.262 139.33a1.1906 1.1906 0 0 0-1.1895 1.1894 1.1906 1.1906 0 0 0 1.1895 1.1914 1.1906 1.1906 0 0 0 1.1914-1.1914 1.1906 1.1906 0 0 0-1.1914-1.1894z" fill="currentColor" stroke-width="6"/>
  <path id="path5" d="m72.262 144.09a1.1906 1.1906 0 0 0-1.1895 1.1914 1.1906 1.1906 0 0 0 1.1895 1.1894 1.1906 1.1906 0 0 0 1.1914-1.1894 1.1906 1.1906 0 0 0-1.1914-1.1914z" fill="currentColor" stroke-width="6"/>
  <path id="path27" d="m111.82 134.97c-1.8918 0-3.4395 1.5476-3.4395 3.4394v13.758c0 1.8918 1.5477 3.4394 3.4395 3.4394h37.57c1.8918 0 3.4395-1.5476 3.4394-3.4394v-13.758c0-1.8918-1.5476-3.4394-3.4394-3.4394zm0 1.5859h37.57c1.0398 0 1.8516 0.81373 1.8516 1.8535v13.758c0 1.0398-0.81178 1.8516-1.8516 1.8516h-37.57c-1.0398 0-1.8535-0.81178-1.8535-1.8516v-13.758c0-1.0398 0.81374-1.8535 1.8535-1.8535z" fill="currentColor" stop-color="#000000"/>
  <path id="path26" d="m121.34 137.35c-1.3055 0-2.3809 1.0754-2.3809 2.3809v11.113c0 1.3055 1.0754 2.3809 2.3809 2.3809h18.521c1.3055 0 2.3809-1.0754 2.3809-2.3809v-11.113c0-1.3055-1.0754-2.3809-2.3809-2.3809zm0 1.5879h18.521c0.45346 0 0.79297 0.33952 0.79297 0.79297v11.113c0 0.45346-0.33951 0.79297-0.79297 0.79297h-18.521c-0.45347 0-0.79297-0.3395-0.79297-0.79297v-11.113c0-0.45346 0.3395-0.79297 0.79297-0.79297z" fill="currentColor" stop-color="#000000"/>
  <path id="path25" d="m144.49 142.77a1.1906 1.1906 0 0 0-1.1914 1.1894 1.1906 1.1906 0 0 0 1.1914 1.1914 1.1906 1.1906 0 0 0 1.1894-1.1914 1.1906 1.1906 0 0 0-1.1894-1.1894z" fill="currentColor" stroke-width="1.5875"/>
  <path id="path24" d="m149.26 142.77a1.1906 1.1906 0 0 0-1.1914 1.1894 1.1906 1.1906 0 0 0 1.1914 1.1914 1.1906 1.1906 0 0 0 1.1914-1.1914 1.1906 1.1906 0 0 0-1.1914-1.1894z" fill="currentColor" stroke-width="1.5875"/>
  <path id="path23" d="m146.88 140.39a1.1906 1.1906 0 0 0-1.1914 1.1914 1.1906 1.1906 0 0 0 1.1914 1.1914 1.1906 1.1906 0 0 0 1.1894-1.1914 1.1906 1.1906 0 0 0-1.1894-1.1914z" fill="currentColor" stroke-width="6"/>
  <path id="path22" d="m146.88 145.15a1.1906 1.1906 0 0 0-1.1914 1.1894 1.1906 1.1906 0 0 0 1.1914 1.1914 1.1906 1.1906 0 0 0 1.1894-1.1914 1.1906 1.1906 0 0 0-1.1894-1.1894z" fill="currentColor" stroke-width="6"/>
  <path id="path21" d="m87.43 124.88c-1.7044 0-3.1035 1.4937-3.1035 3.3144v24.115c0 1.8208 1.3991 3.3144 3.1035 3.3144h11.703c3.6216-2e-5 6.5742-3.1525 6.5742-7.0215v-20.408c0-1.8208-1.3992-3.3144-3.1035-3.3144zm0 1.6406h15.174c0.87432 0 1.5664 0.7398 1.5664 1.6738v20.408c0 2.9822-2.2456 5.3809-5.0371 5.3809h-11.703c-0.87432 0-1.5664-0.7398-1.5664-1.6738v-24.115c0-0.93403 0.69209-1.6738 1.5664-1.6738z" fill="currentColor" stop-color="#000000"/>
  <path id="path19" d="m88.27 145.28a0.79375 0.79375 0 0 0-0.79297 0.79297 0.79375 0.79375 0 0 0 0.79297 0.79492h1.8516v-1.5879zm3.4395 0v1.5879h1.8516a0.79375 0.79375 0 0 0 0.79492-0.79492 0.79375 0.79375 0 0 0-0.79492-0.79297z" fill="currentColor" stop-color="#000000"/>
  <path id="path17" d="m90.916 142.64a0.79375 0.79375 0 0 0-0.79492 0.79492v5.291a0.79375 0.79375 0 0 0 0.79492 0.79297 0.79375 0.79375 0 0 0 0.79297-0.79297v-5.291a0.79375 0.79375 0 0 0-0.79297-0.79492z" fill="currentColor" stop-color="#000000"/>
  <path id="path16" d="m98.059 145.94a1.1906 1.1906 0 0 0-1.1895 1.1914 1.1906 1.1906 0 0 0 1.1895 1.1895 1.1906 1.1906 0 0 0 1.1914-1.1895 1.1906 1.1906 0 0 0-1.1914-1.1914z" fill="currentColor" stroke-width="1.5875"/>
  <path id="path15" d="m100.97 143.56a1.1906 1.1906 0 0 0-1.1895 1.1914 1.1906 1.1906 0 0 0 1.1895 1.1895 1.1906 1.1906 0 0 0 1.1914-1.1895 1.1906 1.1906 0 0 0-1.1914-1.1914z" fill="currentColor" stroke-width="1.5875"/>
  <path id="path14" d="m89.063 128.09c-0.86574 0-1.5859 0.7202-1.5859 1.5859v8.4668c0 0.86575 0.72018 1.5879 1.5859 1.5879h11.906c0.86575 0 1.5879-0.72213 1.5879-1.5879v-8.4668c0-0.86575-0.72215-1.5859-1.5879-1.5859zm0 1.5859h11.906v8.4668h-11.906z" fill="currentColor" stop-color="#000000"/>
 </g>
</svg>
